<svg viewBox="0 0 300 300" xmlns="http://www.w3.org/2000/svg">
  <defs>
    <linearGradient id="scarabBlue" x1="0%" y1="0%" x2="0%" y2="100%">
      <stop offset="0%" stop-color="#4A8FC0"/>
      <stop offset="100%" stop-color="#1B4A6E"/>
    </linearGradient>
  </defs>
  <rect x="8" y="8" width="284" height="284" rx="24" fill="#2A1608"/>
  <rect x="8" y="8" width="284" height="284" rx="24" fill="none" stroke="#D4AF37" stroke-width="8"/>

  <!-- sun disc held -->
  <circle cx="150" cy="70" r="24" fill="#D4AF37" stroke="#3B2412" stroke-width="4"/>

  <!-- body -->
  <ellipse cx="150" cy="175" rx="60" ry="66" fill="url(#scarabBlue)" stroke="#3B2412" stroke-width="5"/>
  <path d="M150 112 L150 238" stroke="#3B2412" stroke-width="4"/>
  <path d="M118 130 Q150 150 182 130 M112 175 L188 175 M118 220 Q150 200 182 220" fill="none" stroke="#3B2412" stroke-width="4"/>

  <!-- head -->
  <ellipse cx="150" cy="108" rx="22" ry="16" fill="#2C5F8A" stroke="#3B2412" stroke-width="4"/>

  <!-- legs -->
  <path d="M96 150 Q60 145 40 130 M96 180 Q55 182 30 190 M96 210 Q60 222 40 244" fill="none" stroke="#3B2412" stroke-width="6" stroke-linecap="round"/>
  <path d="M204 150 Q240 145 260 130 M204 180 Q245 182 270 190 M204 210 Q240 222 260 244" fill="none" stroke="#3B2412" stroke-width="6" stroke-linecap="round"/>

  <!-- gold outline highlight -->
  <ellipse cx="150" cy="175" rx="60" ry="66" fill="none" stroke="#D4AF37" stroke-width="2" opacity="0.6"/>
</svg>
